# xmcd CD database file
#
# Track frame offsets:
#	150
#	11746
#	22690
#	32078
#	42125
#	51743
#	60219
#	71237
#	82989
#	101992
#	114878
#	127068
#	141567
#	155219
#	164951
#	174522
#	186345
#	200933
#	210284
#	225948
#
# Disc length: 3233 seconds
#
# Revision: 0
# Processed by: cddbd v1.5PL3 Copyright (c) Steve Scherf et al.
# Submitted via: Feurio! 1.66 - http://www.feurio.com
#
DISCID=240c9f14
DTITLE=Boxcar Willie - Boxcar Willie's 20 Greatest Hits Volume 1
DYEAR=2003
DGENRE=Country
TTITLE0=??? - I've got a bad case of feeling sorry for me
TTITLE1=??? - The Lord made a Hobo out of me
TTITLE2=??? - Blue eyed girl of Berlin
TTITLE3=??? - Six pound fish
TTITLE4=??? - The fragrance of her perfume
TTITLE5=??? - Daddy was a railroad man
TTITLE6=??? - The day Elvis died
TTITLE7=??? - Hot Box Blues
TTITLE8=??? - Papa's old pocket watch
TTITLE9=??? - I'm going back to Texas
TTITLE10=??? - I can't help it (If I'm still in love with You)
TTITLE11=??? - I'm so lonesome I could cry
TTITLE12=??? - Lonesome Whistle
TTITLE13=??? - Waiting for a Train
TTITLE14=??? - T B Blues
TTITLE15=??? - Cold windy city of Chicago
TTITLE16=??? - Take me Home
TTITLE17=??? - I wake up every morning with a Smile on my face
TTITLE18=??? - Trouble
TTITLE19=??? - Train Medley
EXTD=(c) Big "R"-Records Europe Ltd./ Intercord, \r\nBRA 1012/INT 145.045 \r\n
EXTT0=Songwriter: Boxcar Willie (Acuff Rose Music Ltd.)\r\n
EXTT1=Songwriter: Boxcar Willie (Acuff Rose Music Ltd.)\r\n
EXTT2=Songwriter: Boxcar Willie (Acuff Rose Music Ltd.)\r\n
EXTT3=Songwriter: Boxcar Willie (Acuff Rose Music Ltd.)\r\n
EXTT4=Songwriter: Boxcar Willie (Acuff Rose Music Ltd.)\r\n
EXTT5=Songwriter: Boxcar Willie (Acuff Rose Music Ltd.)\r\n
EXTT6=Songwriter: Boxcar Willie (Acuff Rose Music Ltd.)\r\n
EXTT7=Songwriter: Boxcar Willie (Acuff Rose Music Ltd.)\r\n
EXTT8=Songwriter: Boxcar Willie (Acuff Rose Music Ltd.)\r\n
EXTT9=Songwriter: Ray Dean Davis  (Acuff Rose Music Ltd.)\r\n
EXTT10=Songwriter: Hank Williams (Acuff Rose Music Ltd.)\r\n
EXTT11=Songwriter: Hank Williams (Acuff Rose Music Ltd.)\r\n
EXTT12=Songwriter: Hank Williams (Acuff Rose Music Ltd.)\r\n
EXTT13=Songwriter: Jimmie Rodgers (Southern Music)\r\n
EXTT14=Songwriter: Boxcar Willie (Acuff Rose Music Ltd.)\r\n
EXTT15=Songwriter: Boxcar Willie (Acuff Rose Music Ltd.)\r\n
EXTT16=Songwriter: Boxcar Willie (Acuff Rose Music Ltd.)\r\n
EXTT17=Songwriter: Boxcar Willie (Acuff Rose Music Ltd.)\r\n
EXTT18=Songwriter: Boxcar Willie (Acuff Rose Music Ltd.)\r\n
EXTT19=Songwriter: Fireball Mail (F.Jenkins)/ Train of love (J.Cash)/ Walking 
EXTT19=Cane (L.T.Martin) etc\r\n
PLAYORDER=
